<svg width="37" height="35" fill="none" xmlns="http://www.w3.org/2000/svg"><path fill-rule="evenodd" clip-rule="evenodd" d="M7.58 8.754c.202-.016.406.006.598.065.193.058.372.152.527.275.155.124.282.276.375.446.092.17.149.356.165.547l1.31 14.945c.063.73.415 1.41.984 1.905.569.496 1.314.771 2.088.771h9.746c.774 0 1.52-.275 2.088-.77a2.86 2.86 0 00.985-1.906l1.31-14.945c.038-.382.234-.735.545-.982a1.601 1.601 0 011.118-.336c.405.032.78.214 1.044.506.264.292.395.671.366 1.054l-1.31 14.944c-.128 1.458-.83 2.818-1.969 3.81a6.366 6.366 0 01-4.175 1.542h-9.747a6.366 6.366 0 01-4.177-1.541c-1.139-.992-1.842-2.352-1.97-3.811l-1.31-14.944a1.384 1.384 0 01.068-.565c.062-.183.161-.352.292-.498.13-.147.29-.267.47-.355.181-.088.378-.14.58-.157z" fill="#000"/><path fill-rule="evenodd" clip-rule="evenodd" d="M4.625 10.208c0-.386.162-.757.452-1.03.289-.274.68-.428 1.09-.428h24.666c.41 0 .801.154 1.09.427.29.274.452.645.452 1.031 0 .387-.162.758-.451 1.031-.29.274-.682.428-1.09.428H6.166c-.41 0-.801-.154-1.09-.428a1.42 1.42 0 01-.452-1.03zm10.792 2.917c.409 0 .8.154 1.09.427.289.274.451.645.451 1.031v8.75c0 .387-.162.758-.451 1.032-.29.273-.682.427-1.09.427-.41 0-.801-.154-1.09-.428a1.42 1.42 0 01-.452-1.03v-8.75c0-.387.162-.758.451-1.032.29-.273.682-.427 1.09-.427zm6.166 0c.41 0 .801.154 1.09.427.29.274.452.645.452 1.031v5.834c0 .386-.162.757-.451 1.03-.29.274-.682.428-1.09.428-.41 0-.802-.154-1.09-.427a1.42 1.42 0 01-.452-1.031v-5.834c0-.386.162-.757.451-1.03.29-.274.681-.428 1.09-.428z" fill="#000"/><path fill-rule="evenodd" clip-rule="evenodd" d="M16.096 7.292c-.323 0-.638.096-.9.275a1.467 1.467 0 00-.561.722l-.839 2.38c-.129.367-.407.67-.773.844-.365.173-.789.201-1.177.08a1.52 1.52 0 01-.892-.732 1.387 1.387 0 01-.084-1.114l.839-2.381a4.4 4.4 0 011.683-2.165 4.806 4.806 0 012.704-.826h4.806c.97 0 1.916.289 2.704.826a4.4 4.4 0 011.683 2.165l.84 2.382a1.387 1.387 0 01-.083 1.113c-.091.171-.216.324-.37.45-.152.125-.33.22-.522.281a1.626 1.626 0 01-1.177-.08 1.486 1.486 0 01-.773-.843l-.84-2.38a1.466 1.466 0 00-.56-.721 1.602 1.602 0 00-.9-.276h-4.808z" fill="#000"/></svg>