<svg width="68" height="69" fill="none" xmlns="http://www.w3.org/2000/svg"><path fill-rule="evenodd" clip-rule="evenodd" d="M45.6 44.795a2.236 2.236 0 00-1.5-.063 17.886 17.886 0 01-5.776.713c-9.32-.376-16.595-7.791-16.252-16.56.343-8.769 8.177-15.574 17.496-15.2 9.321.374 16.594 7.791 16.252 16.56-.063 1.627-1.063 4.143-1.941 6.08a5.74 5.74 0 00-.422 3.523l1.243 6.017a1.637 1.637 0 01-.541 1.57 1.581 1.581 0 01-1.62.253l-6.94-2.893zm-29.19-16.14C15.93 41 26.065 50.706 38.1 51.19c2.16.089 4.322-.122 6.426-.626l5.86 2.443c5.385 2.249 11.055-2.538 9.86-8.323l-1.228-5.94.006-.01a41.863 41.863 0 001.485-3.68c.413-1.208.906-2.893.974-4.58C61.965 18.13 51.83 8.426 39.791 7.94c-12.038-.486-22.899 8.372-23.38 20.714z" fill="#FAF0E1"/><path fill-rule="evenodd" clip-rule="evenodd" d="M15.286 37.527c.335.682.39 1.472.152 2.195a2.863 2.863 0 01-1.421 1.66c-.502.257-1.128.961-1.624 2.306a10.487 10.487 0 00-.623 3.79c.005.135.076.529.303 1.207.21.621.487 1.3.765 1.92.555 1.251.76 2.692.473 4.126l-.176.869 1.539-.656a4.333 4.333 0 012.958-.15 8.894 8.894 0 002.927.369 8.621 8.621 0 003.4-.822 8.736 8.736 0 002.81-2.11 2.84 2.84 0 01.88-.692 2.8 2.8 0 013.138.422c.28.251.509.557.672.899a2.91 2.91 0 01-.445 3.18 14.412 14.412 0 01-4.625 3.495 14.223 14.223 0 01-5.607 1.372 14.53 14.53 0 01-4.34-.48l-4.151 1.77c-2.907 1.237-5.998-1.333-5.366-4.47l.833-4.146a1.02 1.02 0 00-.085-.61 29.001 29.001 0 01-.964-2.431c-.272-.805-.563-1.843-.6-2.832a16.314 16.314 0 01.977-6.038c.731-1.975 2.066-4.246 4.397-5.43a2.802 2.802 0 013.125.4c.281.248.512.55.678.887z" fill="#FAF0E1"/></svg>