<svg width="70" height="70" fill="none" xmlns="http://www.w3.org/2000/svg"><g clip-path="url(#a)"><path d="M55.45.706c.49-.53 1.311-.564 1.84-.074.53.49.565 1.31.075 1.84L46.7 14.014l-.017.023c-1.305 1.577-2.2 3.036-2.598 4.369-.353 1.179-.302 2.25.222 3.184.28.502.188 1.117-.182 1.521l-5.064 5.48c-.496-.54-.889-.98-1.151-1.264a5.04 5.04 0 00-.399-.462l-.011.012a3.776 3.776 0 00-.217-.211l4.33-4.689c-.507-1.355-.502-2.797-.034-4.329.5-1.663 1.566-3.435 3.099-5.28.034-.046.062-.092.102-.132L55.44.695l.012.011zM32.546 31.622a1.305 1.305 0 01.102-1.84 1.305 1.305 0 011.84.102C39.847 35.89 56.42 53.656 61.011 60.3c6.055 8.573-3.321 11.273-6.432 8.152-7.77-7.514-24.267-26.672-31.52-34.795-2.608 1.105-5.143 1.276-7.69.547-2.74-.781-5.423-2.61-8.146-5.418l-.034-.034c-2.073-2.188-3.697-4.347-4.87-6.483-1.202-2.199-1.937-4.375-2.2-6.534-.279-2.324-.062-4.489.565-6.409.734-2.255 2.039-4.164 3.748-5.582 1.72-1.424 3.834-2.347 6.192-2.632 1.96-.234 4.096-.034 6.306.69 3.06.996 6.625 3.474 9.582 6.653 2.182 2.341 4.05 5.081 5.161 7.901 1.157 2.94 1.51 5.981.581 8.83-.547 1.686-1.538 3.27-3.076 4.7-.53.49-1.35.455-1.84-.069-.49-.53-.456-1.35.068-1.84 1.191-1.11 1.954-2.324 2.37-3.606.718-2.204.416-4.648-.53-7.052-.99-2.518-2.671-4.98-4.642-7.093-2.666-2.86-5.828-5.075-8.494-5.947-1.829-.592-3.577-.763-5.178-.57-1.857.228-3.52.94-4.848 2.051-1.333 1.111-2.353 2.61-2.94 4.392-.506 1.556-.683 3.344-.45 5.275.223 1.823.855 3.686 1.892 5.589 1.088 1.954 2.58 3.93 4.5 5.953l.011.017c2.405 2.478 4.712 4.073 6.996 4.722 2.159.616 4.358.376 6.654-.769a1.3 1.3 0 011.617.268C31.44 39.13 48.65 59.074 56.271 66.462c3.31 1.35 5.144-.313 3.56-3.247-2.466-4.58-23.658-27.514-27.286-31.593zm-6.87 11.456L9.063 61.05c-.034.034-.062.068-.102.102-2.427 2.62 1.868 6.437 4.534 3.885l16.133-17.46 1.732 1.965-16.008 17.324c-.034.04-.068.074-.114.114-.957.803-1.92 1.327-2.893 1.544a4.431 4.431 0 01-2.934-.32 1.383 1.383 0 01-.439-.261l-2.296-2.125c-.034-.035-.068-.063-.102-.103-.889-1.025-1.31-2.119-1.196-3.275.108-1.094.689-2.16 1.788-3.185l16.771-18.15 1.738 1.972zm17.409-10.06l.985-1.066a1.3 1.3 0 011.84-.074c.524.49.564 1.31.074 1.84l-1.14 1.23-1.76-1.93zM59.5 4.518c.49-.53 1.31-.565 1.84-.075.53.49.564 1.31.074 1.84l-9.348 10.123c-.49.53-1.31.564-1.84.074a1.299 1.299 0 01-.074-1.84l9.348-10.123zm4.045 3.742c.49-.53 1.31-.564 1.84-.074.53.49.564 1.31.074 1.84l-9.343 10.117c-.49.53-1.31.564-1.84.074a1.299 1.299 0 01-.074-1.84L63.546 8.26zm4.192 3.89c.49-.529 1.31-.563 1.84-.073a1.3 1.3 0 01.075 1.84L58.988 25.464c-.04.04-.08.074-.12.114-2.426 2.335-4.745 3.686-6.96 4.067-2.404.416-4.609-.268-6.631-2.034a1.305 1.305 0 01-.126-1.834 1.305 1.305 0 011.835-.125c1.395 1.219 2.888 1.697 4.466 1.418 1.697-.29 3.566-1.413 5.605-3.378l.012-.011 10.658-11.536.011.006z" fill="#FAF0E1"/></g><defs><clipPath id="a"><path fill="#fff" d="M0 0H70V70H0z"/></clipPath></defs></svg>