<svg width="32" height="32" fill="none" xmlns="http://www.w3.org/2000/svg"><path d="M25.762 7.416c-.203-.104-.4-.22-.59-.344a8.303 8.303 0 01-1.518-1.288c-1.13-1.295-1.553-2.608-1.709-3.527h.006C21.821 1.494 21.875 1 21.883 1h-5.152v19.924c0 .267 0 .532-.012.793 0 .032-.003.062-.005.097 0 .015 0 .03-.003.045v.011a4.375 4.375 0 01-2.201 3.473 4.3 4.3 0 01-2.132.562c-2.4 0-4.346-1.957-4.346-4.375s1.946-4.375 4.346-4.375c.455 0 .906.071 1.338.212l.007-5.246a9.57 9.57 0 00-7.375 2.157 10.112 10.112 0 00-2.207 2.72c-.217.376-1.038 1.883-1.137 4.328-.063 1.388.354 2.826.553 3.42v.013c.125.35.61 1.545 1.399 2.552a10.47 10.47 0 002.232 2.105v-.012l.012.012C9.694 31.111 12.46 31 12.46 31c.479-.02 2.082 0 3.904-.863 2.02-.957 3.17-2.383 3.17-2.383a9.908 9.908 0 001.727-2.87c.466-1.226.622-2.696.622-3.283V11.03c.063.037.895.588.895.588s1.2.768 3.07 1.27c1.343.355 3.152.43 3.152.43V8.204c-.634.07-1.92-.13-3.238-.788z" fill="#fff"/></svg>