<svg width="69" height="69" fill="none" xmlns="http://www.w3.org/2000/svg"><path fill-rule="evenodd" clip-rule="evenodd" d="M23 13.639a5.75 5.75 0 014.675-.17l15.338 6.179 11.966-5.836a5.751 5.751 0 018.271 5.163v28.853a5.75 5.75 0 01-3.91 5.446l-13.935 4.712a5.75 5.75 0 01-3.93-.092l-15.876-6.187-11.394 6.075c-3.83 2.044-8.455-.733-8.455-5.072V25.674a5.75 5.75 0 013.22-5.164L23 13.64zm17.865 11.342l-15.338-6.179L11.5 25.674v27.033l11.396-6.075a5.751 5.751 0 014.793-.284l15.876 6.19L57.5 47.83V18.975l-11.966 5.836a5.752 5.752 0 01-4.669.167v.003z" fill="#FAF0E1"/><path fill-rule="evenodd" clip-rule="evenodd" d="M25.875 14.211a2.875 2.875 0 012.875 2.875v31.38a2.875 2.875 0 11-5.75 0v-31.38a2.875 2.875 0 012.875-2.875zm17.25 5.704A2.875 2.875 0 0146 22.79v31.384a2.875 2.875 0 01-5.75 0V22.79a2.875 2.875 0 012.875-2.875z" fill="#FAF0E1"/></svg>