<svg width="36" height="36" fill="none" xmlns="http://www.w3.org/2000/svg"><path fill-rule="evenodd" clip-rule="evenodd" d="M13.125 14.25a2.625 2.625 0 100-5.25 2.625 2.625 0 000 5.25zm0 3a5.625 5.625 0 100-11.25 5.625 5.625 0 000 11.25zm-8.226 4.54c1.348-1.873 3.404-3.04 6.03-3.04h5.142c2.628 0 4.681 1.167 6.03 3.04C23.411 23.61 24 26.01 24 28.5a1.5 1.5 0 11-3 0c0-2.066-.495-3.79-1.335-4.957-.8-1.113-1.96-1.793-3.594-1.793h-5.142c-1.635 0-2.795.68-3.596 1.793C6.495 24.707 6 26.434 6 28.5a1.5 1.5 0 01-3 0c0-2.491.59-4.89 1.899-6.71z" fill="#000"/><path fill-rule="evenodd" clip-rule="evenodd" d="M3 28.5A1.5 1.5 0 014.5 27h17.956a1.5 1.5 0 010 3H4.5A1.5 1.5 0 013 28.5zM22.338 8.8l-.042-.003a3.45 3.45 0 01-.668-.105c-.517-.138-.982-.414-1.194-.892l-.019-.042c-.312-.705.009-1.55.77-1.68a5.625 5.625 0 11.893 11.172c-.77-.006-1.222-.79-1.026-1.535l.012-.045c.133-.507.55-.853 1.035-1.07a3.45 3.45 0 01.684-.221 2.83 2.83 0 00-.445-5.579zm.912 11.45a1.5 1.5 0 011.5-1.5h.321c2.628 0 4.681 1.167 6.03 3.04C32.411 23.61 33 26.008 33 28.5a1.5 1.5 0 11-3 0c0-2.066-.495-3.79-1.335-4.958-.8-1.113-1.96-1.792-3.594-1.792h-.321a1.5 1.5 0 01-1.5-1.5z" fill="#000"/><path fill-rule="evenodd" clip-rule="evenodd" d="M25.5 28.5A1.5 1.5 0 0127 27h4.456a1.5 1.5 0 110 3H27a1.5 1.5 0 01-1.5-1.5z" fill="#000"/></svg>