<svg width="51" height="51" fill="none" xmlns="http://www.w3.org/2000/svg"><g clip-path="url(#a)"><path d="M49.924 18.132c.007-.031.015-.062.021-.094l-.053-.01a25.374 25.374 0 00-6.361-10.56C38.715 2.654 32.311 0 25.5 0 18.689 0 12.285 2.653 7.469 7.469 2.652 12.285 0 18.689 0 25.5c0 6.811 2.652 13.215 7.469 18.031C12.285 48.348 18.689 51 25.499 51c6.812 0 13.216-2.652 18.032-7.469C48.347 38.715 51 32.311 51 25.501c0-2.534-.368-5.01-1.076-7.369zM36.677 4.96a23.43 23.43 0 014.994 3.662c-.142.394-.382.827-.755.827h-.018c-.32-.012-.692-.134-1.085-.263-.595-.195-1.27-.416-2.038-.355-.75.06-1.394.378-1.962.657-.532.262-.991.489-1.32.406-.314-.078-.641-.472-.977-.903-.15-.192-.242-.33-.276-.41.04-.067.121-.173.165-.229.423-.548 1.137-1.249 1.829-1.926.498-.49 1.007-.99 1.443-1.466zm-7.473-2.543c-.123.791-.466 1.834-.775 2.217-.343.424-.948.62-1.35.436-.405-.184-.726-.761-.858-1.543a6.176 6.176 0 00-.437-1.398c1.156.013 2.299.11 3.42.288zM8.971 8.972a23.256 23.256 0 019.771-5.86c.441 1.45.978 2.809 1.502 4.093.401.983.856 2.097.753 3.105-.04.386-.137.88-.382 1.04-.212.14-.64.175-1.09.213-.745.062-1.672.139-2.516.732-.18.126-.348.257-.51.383-.348.272-.676.529-.982.614-.303.085-.693.04-1.145-.01-.26-.03-.528-.06-.812-.07-.902-.033-2.958.4-3.853 1.57a2.133 2.133 0 00-.359 1.965c.157.512.491.869.799 1.15 1.434 1.316 3.403 2.248 5.402 2.557.285.044.562.078.83.11 1.465.18 2.194.31 2.748 1.309.138.249.25.543.367.855.136.359.276.73.48 1.104.606 1.112 1.628 1.763 2.665 1.705.775-.044 1.347-.448 1.806-.773.212-.15.413-.291.584-.363.46-.192 1.164-.021 1.88.456.492.328 1.127.87 1.365 1.59.179.543.055 1.171-.292 1.465l-3.123 2.667c-1.005.858-2.081 1.901-2.118 3.414-.011.478.088.938.175 1.343.06.284.163.758.108.882-.057.051-.325.117-.485.156-.282.069-.601.147-.926.311-1.573.794-1.72 2.676-1.817 3.922-.07.903-.406 1.663-.747 1.695-.278.026-.67-.454-.807-.986-.084-.33-.124-.699-.166-1.089-.06-.562-.13-1.198-.355-1.824-.29-.805-.797-1.47-1.243-2.056-.439-.575-.853-1.119-.987-1.684-.1-.424-.06-.933-.017-1.472.055-.687.117-1.465-.101-2.256-.31-1.126-1.076-1.93-1.753-2.64-.444-.466-.863-.906-1.113-1.382-.3-.573-.263-1.174-.22-1.87.041-.66.088-1.407-.175-2.176-.262-.768-.882-1.212-1.341-1.54a26.274 26.274 0 01-3.747-3.262c-.61-.642-1.206-1.343-1.437-2.12-.06-.202-.102-.355-.134-.475-.146-.534-.232-.725-.539-1.064a23.465 23.465 0 014.057-5.434zM25.5 48.874A23.221 23.221 0 018.97 42.029 23.222 23.222 0 012.125 25.5c0-2.953.545-5.823 1.585-8.494.402.991 1.084 1.796 1.773 2.522a28.413 28.413 0 004.058 3.53c.206.148.518.372.56.495.127.371.098.829.066 1.358-.053.842-.118 1.89.458 2.988.388.74.932 1.31 1.457 1.862.577.605 1.074 1.127 1.242 1.737.119.432.077.963.032 1.524-.051.648-.11 1.381.067 2.13.238 1.005.836 1.79 1.364 2.483.388.51.755.99.935 1.49.139.385.189.844.24 1.33.05.447.1.91.221 1.388.338 1.318 1.408 2.585 2.835 2.585.074 0 .148-.003.224-.01 1.483-.136 2.507-1.533 2.672-3.646.064-.816.151-1.935.657-2.19.108-.055.285-.098.473-.144.434-.106 1.028-.252 1.5-.735.863-.884.624-2 .45-2.813-.07-.318-.134-.619-.128-.846.015-.637.717-1.289 1.373-1.85l3.119-2.663c1.015-.859 1.39-2.365.934-3.75-.339-1.025-1.1-1.957-2.204-2.692-1.348-.899-2.725-1.13-3.876-.65-.389.162-.71.389-.993.59-.263.185-.535.377-.703.387-.166.01-.465-.213-.677-.6-.133-.246-.242-.534-.357-.839-.14-.369-.284-.75-.497-1.135-1.104-1.99-2.828-2.2-4.348-2.387-.252-.03-.511-.062-.764-.101-1.594-.247-3.157-.984-4.29-2.023a1.244 1.244 0 01-.206-.216.212.212 0 01-.003-.014c.14-.326 1.413-.786 2.115-.765.2.006.414.03.642.057.588.067 1.255.143 1.959-.054.71-.2 1.245-.617 1.717-.986a10.6 10.6 0 01.423-.32c.373-.261.882-.304 1.47-.353 1.166-.097 3.117-.26 3.411-3.155.156-1.535-.429-2.97-.9-4.123-.49-1.204-.994-2.474-1.406-3.807.885-.18 1.783-.307 2.692-.384l.153.345c.208.46.404.895.476 1.324.257 1.523.993 2.632 2.072 3.124.386.176.803.26 1.224.26.984 0 1.987-.462 2.66-1.294.54-.67 1.012-1.97 1.202-3.127 1.16.294 2.292.677 3.388 1.145-.294.3-.612.613-.926.92-.743.729-1.51 1.482-2.023 2.145-.203.262-.509.659-.596 1.208-.147.932.433 1.677.712 2.035.433.557 1.088 1.398 2.14 1.66.226.057.447.082.66.082.808 0 1.518-.35 2.113-.643.436-.215.847-.418 1.194-.445.34-.028.742.104 1.206.256.491.161 1.049.344 1.67.366.992.037 1.827-.437 2.4-1.316a23.191 23.191 0 014.452 7.812c-.157.113-.475.128-1.222.138-.325.004-.693.008-1.085.038-1.092.084-1.937-.229-2.915-.591-.657-.243-1.335-.495-2.147-.656-2.045-.407-4.159.736-5.384 2.91-.223.396-2.136 3.92-.72 5.87.528.728 1.277 1.177 1.879 1.538.853.512 1.736 1.04 2.713 1.435.21.084.42.162.625.238.743.274 1.446.533 1.79 1.005.288.394.383 1.018.292 1.907-.07.675-.321 1.361-.588 2.087-.597 1.63-1.34 3.657.402 5.648.497.567 1.094 1 1.754 1.284-.334.379-.68.75-1.04 1.11A23.222 23.222 0 0125.5 48.875zm18.986-9.733a2.699 2.699 0 01-1.573-.907c-.872-.996-.602-1.89-.006-3.516.3-.817.61-1.662.706-2.6.148-1.437-.077-2.542-.69-3.38-.722-.989-1.81-1.39-2.77-1.745a20.968 20.968 0 01-.565-.215c-.823-.332-1.597-.795-2.416-1.286-.48-.289-.978-.587-1.252-.964-.337-.464.077-2.203.852-3.578.582-1.033 1.748-2.142 3.118-1.87.646.129 1.218.34 1.824.565 1.11.411 2.26.838 3.816.717.324-.024.642-.029.948-.032.552-.007 1.193-.016 1.778-.206.408 1.741.619 3.542.619 5.375 0 4.965-1.54 9.693-4.39 13.642z" fill="#FAF0E1"/></g><defs><clipPath id="a"><path fill="#fff" d="M0 0H51V51H0z"/></clipPath></defs></svg>