<svg width="36" height="36" fill="none" xmlns="http://www.w3.org/2000/svg"><path fill="#fff" d="M0 0H36V36H0z"/><path fill-rule="evenodd" clip-rule="evenodd" d="M23.961 10.545l-1.785-4.446c-1.512-3.765-6.84-3.765-8.352 0l-1.785 4.446-4.78.324c-4.047.274-5.694 5.341-2.58 7.942l3.675 3.073-1.169 4.646c-.99 3.935 3.321 7.066 6.758 4.91L18 28.893l4.058 2.547c3.435 2.157 7.747-.975 6.757-4.91l-1.17-4.646 3.678-3.073c3.113-2.6 1.466-7.668-2.58-7.942l-4.782-.324zm-4.569-3.33c-.504-1.254-2.28-1.254-2.784 0l-2.136 5.324a1.5 1.5 0 01-1.29.937l-5.72.387c-1.35.091-1.898 1.782-.862 2.649l4.401 3.675a1.5 1.5 0 01.492 1.516l-1.398 5.561c-.33 1.311 1.107 2.355 2.252 1.637l4.855-3.049a1.5 1.5 0 011.596 0l4.856 3.049c1.144.72 2.581-.326 2.251-1.636l-1.398-5.56A1.5 1.5 0 0125 20.187l4.401-3.675c1.037-.869.488-2.558-.86-2.649l-5.72-.387a1.5 1.5 0 01-1.29-.938l-2.14-5.323h.002z" fill="#000"/></svg>