<svg width="18" height="18" fill="none" xmlns="http://www.w3.org/2000/svg"><path d="M14.491 4.172a3.85 3.85 0 01-.332-.194 4.672 4.672 0 01-.853-.725 4.024 4.024 0 01-.962-1.984h.004c-.074-.429-.043-.706-.039-.706H9.411V11.77c0 .15 0 .299-.006.446l-.003.055c0 .008 0 .016-.002.024v.007a2.46 2.46 0 01-1.238 1.953 2.42 2.42 0 01-1.2.317 2.452 2.452 0 01-2.444-2.461c0-1.36 1.094-2.461 2.445-2.461.255 0 .51.04.752.119l.004-2.951A5.384 5.384 0 003.57 8.03c-.5.434-.919.952-1.24 1.53-.123.212-.584 1.06-.64 2.435-.036.78.199 1.59.31 1.924v.007c.071.197.344.869.788 1.435a5.89 5.89 0 001.255 1.185v-.007l.007.007c1.403.953 2.959.89 2.959.89.269-.01 1.171 0 2.196-.485a5.51 5.51 0 001.783-1.34 5.57 5.57 0 00.972-1.615 6.05 6.05 0 00.35-1.847V6.205c.034.02.503.33.503.33s.674.433 1.727.715c.755.2 1.773.242 1.773.242V4.615c-.357.039-1.08-.074-1.822-.443z" fill="#fff"/></svg>