<svg width="67" height="63" fill="none" xmlns="http://www.w3.org/2000/svg"><path fill-rule="evenodd" clip-rule="evenodd" d="M33.5 26.25a8.84 8.84 0 003.205-.6 8.43 8.43 0 002.717-1.706 7.862 7.862 0 001.816-2.555c.42-.956.637-1.98.637-3.014a7.468 7.468 0 00-.638-3.014 7.862 7.862 0 00-1.815-2.555 8.43 8.43 0 00-2.717-1.707A8.84 8.84 0 0033.5 10.5c-2.221 0-4.351.83-5.922 2.306-1.57 1.477-2.453 3.48-2.453 5.569s.882 4.092 2.453 5.569c1.57 1.476 3.7 2.306 5.922 2.306zm0 5.25c3.702 0 7.252-1.383 9.87-3.844 2.618-2.462 4.088-5.8 4.088-9.281 0-3.481-1.47-6.82-4.088-9.28-2.618-2.462-6.168-3.845-9.87-3.845-3.702 0-7.252 1.383-9.87 3.844-2.618 2.462-4.088 5.8-4.088 9.281 0 3.481 1.47 6.82 4.088 9.28 2.618 2.462 6.168 3.845 9.87 3.845zm-20.55 9.051c3.197-3.985 8.013-6.426 14.168-6.426h12.764c6.155 0 10.971 2.441 14.168 6.426 3.129 3.903 4.575 9.103 4.575 14.574 0 .696-.294 1.364-.818 1.856a2.884 2.884 0 01-1.974.769c-.74 0-1.45-.277-1.974-.769a2.548 2.548 0 01-.817-1.856c0-4.678-1.245-8.663-3.448-11.413-2.136-2.662-5.299-4.337-9.715-4.337H27.121c-4.416 0-7.58 1.675-9.715 4.337-2.205 2.75-3.448 6.735-3.448 11.413 0 .696-.294 1.364-.817 1.856a2.885 2.885 0 01-1.974.769c-.74 0-1.45-.277-1.974-.769a2.548 2.548 0 01-.818-1.856c0-5.47 1.446-10.67 4.575-14.574z" fill="#FAF0E1"/><path fill-rule="evenodd" clip-rule="evenodd" d="M8.375 55.125c0-.696.294-1.364.818-1.856a2.885 2.885 0 011.974-.769h44.56c.74 0 1.45.277 1.974.769s.818 1.16.818 1.856c0 .696-.294 1.364-.818 1.856a2.885 2.885 0 01-1.974.769h-44.56c-.74 0-1.45-.277-1.974-.769a2.548 2.548 0 01-.818-1.856z" fill="#FAF0E1"/></svg>