<svg width="20" height="20" fill="none" xmlns="http://www.w3.org/2000/svg"><g clip-path="url(#a)" fill="#fff"><path d="M14.799 11.492c-.039-.019-1.497-.737-1.756-.83a1.009 1.009 0 00-.34-.075c-.197 0-.362.098-.49.291-.146.216-.587.732-.724.886-.017.02-.042.045-.056.045-.013 0-.239-.093-.307-.123-1.564-.68-2.752-2.313-2.914-2.589-.024-.04-.025-.057-.025-.057.006-.021.059-.074.086-.101.08-.079.165-.183.248-.283l.118-.14c.12-.14.175-.25.237-.375l.033-.066a.68.68 0 00-.02-.64c-.035-.07-.65-1.555-.716-1.711-.157-.377-.365-.552-.654-.552-.027 0 0 0-.113.005-.137.005-.882.104-1.212.311-.35.22-.941.924-.941 2.16 0 1.112.705 2.162 1.008 2.561l.042.06c1.16 1.695 2.607 2.951 4.074 3.537 1.412.564 2.08.63 2.46.63.16 0 .289-.013.401-.024l.072-.007c.488-.043 1.56-.599 1.803-1.276.193-.534.243-1.117.115-1.329-.087-.144-.238-.216-.429-.308z"/><path d="M10.178 0C4.76 0 .354 4.374.354 9.75c0 1.738.465 3.44 1.347 4.93L.014 19.657a.26.26 0 00.324.33l5.19-1.648a9.89 9.89 0 004.65 1.159c5.416 0 9.822-4.373 9.822-9.748C20 4.374 15.594 0 10.178 0zm0 17.467a7.782 7.782 0 01-4.282-1.276.26.26 0 00-.221-.03l-2.6.826.84-2.476a.26.26 0 00-.037-.237A7.612 7.612 0 012.397 9.75c0-4.256 3.49-7.72 7.78-7.72s7.78 3.464 7.78 7.72c0 4.255-3.49 7.717-7.78 7.717z"/></g><defs><clipPath id="a"><path fill="#fff" d="M0 0H20V20H0z"/></clipPath></defs></svg>