<svg version="1.1" id="Layer_1" xmlns="http://www.w3.org/2000/svg" xmlns:xlink="http://www.w3.org/1999/xlink" x="0px" y="0px"
	 width="100%" viewBox="0 0 477 190" enable-background="new 0 0 477 190" xml:space="preserve">
<path fill="#FFAC30" opacity="1.000000" stroke="none" 
	d="
M90.000000,191.000000 
	C88.285645,191.000000 86.571281,191.000000 84.213676,190.633636 
	C79.322960,189.845718 74.988289,189.820450 70.848541,188.909409 
	C64.696938,187.555618 57.856476,186.817352 52.857922,183.490311 
	C48.416420,180.534027 44.639359,180.251114 39.761917,179.706436 
	C23.421997,177.881729 8.514344,172.706177 1.000000,156.000000 
	C1.000000,123.979103 1.000000,91.958214 1.329400,59.317093 
	C3.566164,55.502670 5.255872,52.148563 7.448626,49.164043 
	C9.256531,46.703339 12.430406,45.038132 13.657305,42.397129 
	C17.548508,34.021004 23.294464,27.902544 32.533081,26.406647 
	C36.964931,25.689049 41.822399,26.130102 46.244133,27.125635 
	C55.479626,29.204960 64.622086,31.604094 70.847542,39.993679 
	C72.278275,41.921780 76.287010,43.459110 78.613579,42.942722 
	C90.068596,40.400230 99.992241,46.901192 102.010529,58.938675 
	C102.351990,60.975185 102.926544,62.972610 103.554626,65.684082 
	C111.165009,62.308079 117.763344,64.675827 124.310493,67.622322 
	C124.971603,67.919846 125.929794,67.851654 126.663643,67.645447 
	C131.504868,66.285156 136.334991,64.881889 141.144928,63.414539 
	C150.219116,60.646305 159.871216,61.575996 169.038773,58.336296 
	C174.482574,56.412521 181.148193,59.039215 187.005981,56.030819 
	C188.920563,55.047546 191.530518,54.824135 193.722672,55.086617 
	C200.358398,55.881153 206.446686,57.084301 213.245300,53.415318 
	C217.451340,51.145466 223.880173,52.994438 229.777283,52.994438 
	C235.404282,43.358925 238.576950,40.832035 249.423294,38.318447 
	C252.748856,37.547764 256.815643,38.251534 259.457794,36.572445 
	C268.103363,31.078152 277.356445,28.632015 285.830353,28.888302 
	C289.723480,24.684433 292.189331,20.180534 295.953369,18.358711 
	C302.790070,15.049700 310.307831,12.977496 317.720459,11.094117 
	C321.989075,10.009555 326.618042,10.396832 331.066925,9.945506 
	C333.313141,9.717639 335.821625,9.626694 337.689301,8.559744 
	C344.149811,4.869039 350.484711,5.306563 357.104492,7.928152 
	C358.546082,8.499036 360.775818,8.603823 362.034607,7.874287 
	C373.473572,1.244730 385.496704,3.969180 397.114563,6.262661 
	C402.297028,7.285737 406.830933,11.594189 411.662354,14.413401 
	C414.823029,8.592834 415.103668,8.326990 426.000000,1.000000 
	C430.689240,1.000000 435.378510,1.000000 440.673767,1.325269 
	C445.882507,4.107320 450.595520,6.380065 455.064941,9.059220 
	C464.347107,14.623367 474.294800,19.574554 478.000000,31.000000 
	C478.000000,35.356899 478.000000,39.713799 477.662292,44.699497 
	C471.798737,61.742401 466.152832,78.117958 460.861938,94.607452 
	C459.949799,97.450180 460.301361,100.793175 460.507690,103.875710 
	C460.758453,107.622162 462.320007,111.447723 461.850861,115.048332 
	C458.879150,137.853897 440.721313,147.230164 419.888397,143.376587 
	C406.394501,140.880539 396.048309,133.537170 389.366516,121.213951 
	C385.223022,127.189651 380.376862,131.355148 373.259369,132.050659 
	C366.393463,132.721619 359.398132,134.460663 352.689941,133.700012 
	C345.556854,132.891190 339.663361,134.526855 332.999908,136.539825 
	C323.302734,139.469223 313.173645,142.812424 302.568939,140.497116 
	C301.842499,140.338501 300.967621,140.832184 300.167389,141.043839 
	C292.788574,142.995193 285.226746,144.449234 279.351685,150.008453 
	C278.250458,151.050491 276.462463,151.455078 274.922546,151.930847 
	C264.948425,155.012192 254.949203,158.012161 244.970810,161.079773 
	C239.821564,162.662781 234.676331,165.727921 229.568130,165.647797 
	C220.839401,165.510895 212.845779,167.763245 204.706467,170.006500 
	C203.819611,170.250916 202.798050,170.369186 202.103607,170.895294 
	C189.829102,180.194626 175.991196,183.544006 160.809525,181.907288 
	C160.055756,181.826019 159.211182,181.631180 158.541931,181.866928 
	C150.013779,184.871048 141.509995,187.944321 133.000000,191.000000 
	C126.645599,191.000000 120.291206,191.000000 113.285614,190.651855 
	C105.010269,187.956253 97.407944,186.318771 90.000000,191.000000 
M394.173096,84.234840 
	C399.748047,79.329590 400.293243,72.703651 400.170654,65.832458 
	C397.753082,71.865547 395.335510,77.898628 392.407166,84.170227 
	C392.355774,84.602318 392.304382,85.034409 392.252960,85.466507 
	C392.719757,85.213501 393.186523,84.960495 394.173096,84.234840 
M272.506378,49.252201 
	C267.828003,50.098461 263.149597,50.944717 258.029785,51.870827 
	C258.029785,80.886833 258.029785,110.356049 258.029785,140.463364 
	C262.811920,138.946426 266.843018,137.426178 270.998474,136.419647 
	C274.908203,135.472656 276.405518,133.471252 276.235138,129.386261 
	C275.714905,116.910828 275.474609,104.422928 275.222198,91.937920 
	C275.180542,89.877617 275.626495,87.807465 275.847076,85.741859 
	C276.374908,85.752167 276.902771,85.762482 277.430634,85.772797 
	C277.951355,87.264221 278.550842,88.733360 278.980164,90.250641 
	C282.015594,100.978050 284.955536,111.733162 288.104614,122.426811 
	C288.497070,123.759491 289.800812,125.620651 290.917877,125.804314 
	C295.603363,126.574707 300.602356,122.777351 301.797485,118.027420 
	C305.167206,104.634338 308.509735,91.234352 311.918793,77.851303 
	C312.275299,76.451767 313.003632,75.146950 313.559448,73.798180 
	C314.828979,75.367455 315.015167,76.597389 314.991455,77.823273 
	C314.736908,90.977188 314.481293,104.131256 314.157288,117.283585 
	C313.990601,124.049965 314.134705,124.226151 320.558868,122.992172 
	C323.012024,122.520958 325.457947,121.888268 327.935638,121.696198 
	C332.156158,121.369011 333.279144,119.277069 333.255615,115.155098 
	C333.086304,85.496468 333.170410,55.836411 333.149567,26.176823 
	C333.148438,24.575764 332.926483,22.974859 332.752655,20.639118 
	C326.327850,21.874142 320.517212,23.159719 314.647644,24.061249 
	C310.605286,24.682131 308.775879,26.701406 307.910736,30.717323 
	C304.652313,45.843491 301.074921,60.901314 297.555847,75.970459 
	C297.144714,77.731041 296.353638,79.402908 295.738678,81.115906 
	C294.233765,79.803505 293.695038,78.656158 293.408264,77.448959 
	C290.946899,67.087669 288.451111,56.733295 286.144836,46.337101 
	C285.331116,42.669018 284.081421,41.720425 280.841156,44.243771 
	C278.498322,46.068237 275.785370,47.417446 272.506378,49.252201 
M251.005234,126.483574 
	C251.005234,101.955353 251.005234,77.427132 251.005234,51.543434 
	C246.401367,56.079842 242.901627,59.716236 239.196152,63.129272 
	C235.066772,66.932777 230.472031,70.221153 224.468628,68.896446 
	C220.594620,68.041603 219.822006,70.057999 219.335205,72.955093 
	C218.177597,79.844666 217.061371,86.741676 215.833435,93.618713 
	C215.311859,96.539734 214.552414,99.418289 213.901062,102.316139 
	C213.342575,102.268105 212.784073,102.220070 212.225571,102.172043 
	C209.030457,89.810135 205.835342,77.448235 202.453537,64.364006 
	C199.892227,66.022057 198.257172,67.071815 196.630829,68.134911 
	C191.703812,71.355522 186.400711,72.920982 180.511490,71.660507 
	C174.991501,70.479073 175.004578,70.518517 175.069702,76.117447 
	C175.247665,91.421593 175.408813,106.726692 175.431458,122.031639 
	C175.449677,134.351669 175.222229,146.671890 175.172089,158.992294 
	C175.149933,164.436981 175.514862,164.651840 180.983185,163.285263 
	C183.080215,162.761200 185.146896,162.045746 187.273773,161.724960 
	C192.419876,160.948792 194.420074,158.420303 194.128525,152.938034 
	C193.421875,139.649353 193.318878,126.327477 193.058777,113.017288 
	C193.021042,111.085426 193.457291,109.144310 193.674194,107.207474 
	C194.196854,107.170403 194.719513,107.133331 195.242172,107.096252 
	C195.825867,109.068634 196.459686,111.027779 196.984924,113.015602 
	C199.958618,124.269768 202.848694,135.546661 205.938812,146.768585 
	C206.307495,148.107437 207.563354,149.990875 208.672455,150.196671 
	C212.861877,150.974060 218.229721,146.861008 219.239899,142.543793 
	C222.763672,127.484428 226.246597,112.415436 229.808029,97.365005 
	C230.169876,95.835899 230.956772,94.407379 231.546417,92.932190 
	C231.860291,93.059685 232.174164,93.187180 232.488037,93.314682 
	C232.488037,110.792770 232.488037,128.270859 232.488037,145.774567 
	C233.211823,145.919479 233.729324,146.186081 234.151825,146.078735 
	C235.756866,145.671021 237.368042,145.238098 238.911255,144.644073 
	C253.504700,139.026443 250.677719,143.069183 251.005234,126.483574 
M59.648350,65.923393 
	C58.877266,61.618019 55.204281,60.500446 51.967552,58.838326 
	C46.310001,55.933079 40.702541,52.930279 34.447525,49.638634 
	C34.447525,57.231297 34.468914,63.841618 34.443657,70.451759 
	C34.355804,93.444061 34.217793,116.436302 34.212009,139.428589 
	C34.211491,141.491272 34.323059,144.497635 35.592224,145.444733 
	C39.849720,148.621826 44.655476,151.064209 49.251366,153.787842 
	C49.744682,153.440750 50.237999,153.093658 50.731316,152.746567 
	C50.731316,136.322937 50.731316,119.899307 50.731316,103.475670 
	C51.226849,103.393929 51.722385,103.312180 52.217918,103.230431 
	C52.891094,104.832115 53.619648,106.413040 54.228733,108.038734 
	C59.365696,121.749573 64.447807,135.481049 69.611107,149.181946 
	C75.638954,165.176926 75.705788,164.973541 92.569756,168.348099 
	C97.374626,169.309570 98.270164,167.972092 98.244789,163.545441 
	C98.095795,137.553207 98.171738,111.559677 98.171814,85.566582 
	C98.171852,73.370682 98.145752,73.493088 86.333466,70.977966 
	C82.373650,70.134834 80.995064,70.912590 81.069595,75.208649 
	C81.300797,88.535957 81.165359,101.869850 81.138824,115.201126 
	C81.135498,116.870758 80.932114,118.540001 80.821434,120.209419 
	C80.229843,120.293900 79.638252,120.378372 79.046661,120.462845 
	C72.667618,102.522720 66.288574,84.582603 59.648350,65.923393 
M169.841797,115.509109 
	C169.742920,112.514160 169.621811,109.519760 169.549210,106.524170 
	C169.299026,96.202156 169.021011,85.880486 168.849762,75.557091 
	C168.787613,71.809952 167.553223,69.975685 163.419617,70.958778 
	C159.865707,71.804001 156.229691,72.532082 152.595932,72.753654 
	C148.372498,73.011177 146.828659,74.675026 147.079010,79.008911 
	C147.722061,90.140747 148.388672,101.301285 148.233383,112.439018 
	C148.123138,120.345688 147.168716,128.326111 145.670746,136.096176 
	C144.755981,140.841049 140.354965,142.840012 135.643692,142.723358 
	C131.146133,142.612015 128.140610,139.942352 127.080864,135.615433 
	C126.175629,131.919418 125.230995,128.092010 125.265816,124.331642 
	C125.404526,109.352036 125.811813,94.371841 126.377983,79.401634 
	C126.504593,76.053993 125.555855,74.899437 122.269020,74.943954 
	C118.282166,74.997955 114.270065,74.839081 110.305756,74.421921 
	C106.646164,74.036835 105.191948,75.286781 105.108597,79.034241 
	C104.801270,92.850662 103.771141,106.670692 104.001236,120.472885 
	C104.171982,130.714996 105.176750,141.064636 107.098305,151.120209 
	C108.839256,160.230637 114.692162,166.893982 123.778008,170.169693 
	C140.932175,176.354263 159.760696,167.412384 165.941772,150.064957 
	C169.816925,139.189178 169.839355,127.841408 169.841797,115.509109 
M359.087921,118.832565 
	C363.078918,119.005661 367.115662,118.866905 371.047455,119.443649 
	C374.642517,119.970985 375.844269,118.850792 375.931183,115.324562 
	C376.152618,106.338997 376.497437,97.351204 377.075043,88.382477 
	C377.284485,85.130516 377.899902,81.787148 379.005463,78.729706 
	C385.791687,59.961952 392.740662,41.252697 399.715393,22.553782 
	C400.966675,19.199123 399.955566,17.517569 396.534790,16.894524 
	C393.589417,16.358068 390.613068,15.854444 387.760284,14.978583 
	C383.237610,13.590037 381.108521,15.227620 379.979919,19.698263 
	C377.456238,29.694803 374.615479,39.612576 371.805695,49.534630 
	C371.159302,51.817158 370.117188,53.987621 368.699036,57.651772 
	C367.682068,54.997349 367.139099,53.880898 366.822052,52.703606 
	C364.788788,45.154148 362.809448,37.590195 360.804230,30.033173 
	C357.206757,16.475229 357.217010,16.638500 343.055969,17.743813 
	C338.337341,18.112114 337.946411,20.114882 339.175476,23.881731 
	C342.993073,35.581985 346.332367,47.453087 350.556122,59.002316 
	C355.840118,73.450806 358.805176,88.009583 356.210876,103.414665 
	C355.606323,107.004379 355.421692,110.729576 355.625244,114.359833 
	C355.710632,115.883224 357.307892,117.321861 359.087921,118.832565 
M446.924225,52.441624 
	C448.987122,45.429539 450.864258,38.355003 453.191528,31.431782 
	C454.349792,27.986195 453.487030,25.775370 450.783508,23.692509 
	C445.777405,19.835634 440.917603,15.789184 435.924561,11.914863 
	C434.706116,10.969420 433.207520,10.384983 431.740875,9.581509 
	C431.276398,10.607516 430.965240,11.035436 430.888336,11.501974 
	C427.455139,32.328323 424.000854,53.151531 420.725891,74.002876 
	C420.518036,75.325996 421.300842,77.527199 422.344330,78.198799 
	C426.771820,81.048370 431.471710,83.474625 436.850403,86.492165 
	C440.244690,75.036629 443.477173,64.127235 446.924225,52.441624 
M415.453491,91.713516 
	C410.166199,93.562172 408.082886,97.595505 407.966827,102.877296 
	C407.747711,112.848763 418.378571,123.277100 428.367859,122.803856 
	C432.699432,122.598648 436.132416,120.823631 437.187347,116.184761 
	C439.706726,105.106430 427.413391,89.264137 415.453491,91.713516 
M57.701519,50.540344 
	C61.355831,53.410999 64.897270,56.443367 68.701729,59.098907 
	C71.524689,61.069355 74.515709,63.472168 77.733849,64.077805 
	C87.617088,65.937798 91.028481,64.458061 90.040718,54.486832 
	C89.769440,51.748260 89.115631,50.311157 86.052269,51.686516 
	C80.675011,54.100750 75.998222,52.281807 71.689262,48.976562 
	C68.262177,46.347771 65.188400,43.138474 61.478436,41.030491 
	C57.378658,38.701012 52.775452,37.209633 48.287247,35.654034 
	C47.437527,35.359524 45.184555,36.396740 45.139454,36.947304 
	C44.884380,40.061020 44.621239,43.346260 45.426109,46.280914 
	C45.706581,47.303551 49.036121,47.457493 50.952412,48.072769 
	C52.995426,48.728725 55.013893,49.461128 57.701519,50.540344 
z"/>
<path fill="#FFFFFF" opacity="1.000000" stroke="none" 
	d="
M133.468658,191.000000 
	C141.509995,187.944321 150.013779,184.871048 158.541931,181.866928 
	C159.211182,181.631180 160.055756,181.826019 160.809525,181.907288 
	C175.991196,183.544006 189.829102,180.194626 202.103607,170.895294 
	C202.798050,170.369186 203.819611,170.250916 204.706467,170.006500 
	C212.845779,167.763245 220.839401,165.510895 229.568130,165.647797 
	C234.676331,165.727921 239.821564,162.662781 244.970810,161.079773 
	C254.949203,158.012161 264.948425,155.012192 274.922546,151.930847 
	C276.462463,151.455078 278.250458,151.050491 279.351685,150.008453 
	C285.226746,144.449234 292.788574,142.995193 300.167389,141.043839 
	C300.967621,140.832184 301.842499,140.338501 302.568939,140.497116 
	C313.173645,142.812424 323.302734,139.469223 332.999908,136.539825 
	C339.663361,134.526855 345.556854,132.891190 352.689941,133.700012 
	C359.398132,134.460663 366.393463,132.721619 373.259369,132.050659 
	C380.376862,131.355148 385.223022,127.189651 389.366516,121.213951 
	C396.048309,133.537170 406.394501,140.880539 419.888397,143.376587 
	C440.721313,147.230164 458.879150,137.853897 461.850861,115.048332 
	C462.320007,111.447723 460.758453,107.622162 460.507690,103.875710 
	C460.301361,100.793175 459.949799,97.450180 460.861938,94.607452 
	C466.152832,78.117958 471.798737,61.742401 477.662292,45.164146 
	C478.000000,93.623283 478.000000,142.246567 478.000000,191.000000 
	C363.312469,191.000000 248.624893,191.000000 133.468658,191.000000 
z"/>
<path fill="#FFFFFF" opacity="1.000000" stroke="none" 
	d="
M425.531342,1.000000 
	C415.103668,8.326990 414.823029,8.592834 411.662354,14.413401 
	C406.830933,11.594189 402.297028,7.285737 397.114563,6.262661 
	C385.496704,3.969180 373.473572,1.244730 362.034607,7.874287 
	C360.775818,8.603823 358.546082,8.499036 357.104492,7.928152 
	C350.484711,5.306563 344.149811,4.869039 337.689301,8.559744 
	C335.821625,9.626694 333.313141,9.717639 331.066925,9.945506 
	C326.618042,10.396832 321.989075,10.009555 317.720459,11.094117 
	C310.307831,12.977496 302.790070,15.049700 295.953369,18.358711 
	C292.189331,20.180534 289.723480,24.684433 285.830353,28.888302 
	C277.356445,28.632015 268.103363,31.078152 259.457794,36.572445 
	C256.815643,38.251534 252.748856,37.547764 249.423294,38.318447 
	C238.576950,40.832035 235.404282,43.358925 229.777283,52.994438 
	C223.880173,52.994438 217.451340,51.145466 213.245300,53.415318 
	C206.446686,57.084301 200.358398,55.881153 193.722672,55.086617 
	C191.530518,54.824135 188.920563,55.047546 187.005981,56.030819 
	C181.148193,59.039215 174.482574,56.412521 169.038773,58.336296 
	C159.871216,61.575996 150.219116,60.646305 141.144928,63.414539 
	C136.334991,64.881889 131.504868,66.285156 126.663643,67.645447 
	C125.929794,67.851654 124.971603,67.919846 124.310493,67.622322 
	C117.763344,64.675827 111.165009,62.308079 103.554626,65.684082 
	C102.926544,62.972610 102.351990,60.975185 102.010529,58.938675 
	C99.992241,46.901192 90.068596,40.400230 78.613579,42.942722 
	C76.287010,43.459110 72.278275,41.921780 70.847542,39.993679 
	C64.622086,31.604094 55.479626,29.204960 46.244133,27.125635 
	C41.822399,26.130102 36.964931,25.689049 32.533081,26.406647 
	C23.294464,27.902544 17.548508,34.021004 13.657305,42.397129 
	C12.430406,45.038132 9.256531,46.703339 7.448626,49.164043 
	C5.255872,52.148563 3.566164,55.502670 1.329400,58.848434 
	C1.000000,39.684189 1.000000,20.368380 1.000000,1.000000 
	C142.354218,1.000000 283.708466,1.000000 425.531342,1.000000 
z"/>
<path fill="#FFFFFF" opacity="1.000000" stroke="none" 
	d="
M1.000000,156.468658 
	C8.514344,172.706177 23.421997,177.881729 39.761917,179.706436 
	C44.639359,180.251114 48.416420,180.534027 52.857922,183.490311 
	C57.856476,186.817352 64.696938,187.555618 70.848541,188.909409 
	C74.988289,189.820450 79.322960,189.845718 83.785217,190.633636 
	C56.436302,191.000000 28.872601,191.000000 1.000000,191.000000 
	C1.000000,179.647644 1.000000,168.292480 1.000000,156.468658 
z"/>
<path fill="#FFFFFF" opacity="1.000000" stroke="none" 
	d="
M478.000000,30.531342 
	C474.294800,19.574554 464.347107,14.623367 455.064941,9.059220 
	C450.595520,6.380065 445.882507,4.107320 441.139893,1.325269 
	C453.252228,1.000000 465.504456,1.000000 478.000000,1.000000 
	C478.000000,10.686206 478.000000,20.374445 478.000000,30.531342 
z"/>
<path fill="#FFFFFF" opacity="1.000000" stroke="none" 
	d="
M90.468620,191.000000 
	C97.407944,186.318771 105.010269,187.956253 112.817215,190.651855 
	C105.645744,191.000000 98.291496,191.000000 90.468620,191.000000 
z"/>
<path fill="#FFFEFD" opacity="1.000000" stroke="none" 
	d="
M272.871918,49.115402 
	C275.785370,47.417446 278.498322,46.068237 280.841156,44.243771 
	C284.081421,41.720425 285.331116,42.669018 286.144836,46.337101 
	C288.451111,56.733295 290.946899,67.087669 293.408264,77.448959 
	C293.695038,78.656158 294.233765,79.803505 295.738678,81.115906 
	C296.353638,79.402908 297.144714,77.731041 297.555847,75.970459 
	C301.074921,60.901314 304.652313,45.843491 307.910736,30.717323 
	C308.775879,26.701406 310.605286,24.682131 314.647644,24.061249 
	C320.517212,23.159719 326.327850,21.874142 332.752655,20.639118 
	C332.926483,22.974859 333.148438,24.575764 333.149567,26.176823 
	C333.170410,55.836411 333.086304,85.496468 333.255615,115.155098 
	C333.279144,119.277069 332.156158,121.369011 327.935638,121.696198 
	C325.457947,121.888268 323.012024,122.520958 320.558868,122.992172 
	C314.134705,124.226151 313.990601,124.049965 314.157288,117.283585 
	C314.481293,104.131256 314.736908,90.977188 314.991455,77.823273 
	C315.015167,76.597389 314.828979,75.367455 313.559448,73.798180 
	C313.003632,75.146950 312.275299,76.451767 311.918793,77.851303 
	C308.509735,91.234352 305.167206,104.634338 301.797485,118.027420 
	C300.602356,122.777351 295.603363,126.574707 290.917877,125.804314 
	C289.800812,125.620651 288.497070,123.759491 288.104614,122.426811 
	C284.955536,111.733162 282.015594,100.978050 278.980164,90.250641 
	C278.550842,88.733360 277.951355,87.264221 277.430634,85.772797 
	C276.902771,85.762482 276.374908,85.752167 275.847076,85.741859 
	C275.626495,87.807465 275.180542,89.877617 275.222198,91.937920 
	C275.474609,104.422928 275.714905,116.910828 276.235138,129.386261 
	C276.405518,133.471252 274.908203,135.472656 270.998474,136.419647 
	C266.843018,137.426178 262.811920,138.946426 258.029785,140.463364 
	C258.029785,110.356049 258.029785,80.886833 258.029785,51.870827 
	C263.149597,50.944717 267.828003,50.098461 272.871918,49.115402 
z"/>
<path fill="#FFFDFB" opacity="1.000000" stroke="none" 
	d="
M251.005234,126.979584 
	C250.677719,143.069183 253.504700,139.026443 238.911255,144.644073 
	C237.368042,145.238098 235.756866,145.671021 234.151825,146.078735 
	C233.729324,146.186081 233.211823,145.919479 232.488037,145.774567 
	C232.488037,128.270859 232.488037,110.792770 232.488037,93.314682 
	C232.174164,93.187180 231.860291,93.059685 231.546417,92.932190 
	C230.956772,94.407379 230.169876,95.835899 229.808029,97.365005 
	C226.246597,112.415436 222.763672,127.484428 219.239899,142.543793 
	C218.229721,146.861008 212.861877,150.974060 208.672455,150.196671 
	C207.563354,149.990875 206.307495,148.107437 205.938812,146.768585 
	C202.848694,135.546661 199.958618,124.269768 196.984924,113.015602 
	C196.459686,111.027779 195.825867,109.068634 195.242172,107.096252 
	C194.719513,107.133331 194.196854,107.170403 193.674194,107.207474 
	C193.457291,109.144310 193.021042,111.085426 193.058777,113.017288 
	C193.318878,126.327477 193.421875,139.649353 194.128525,152.938034 
	C194.420074,158.420303 192.419876,160.948792 187.273773,161.724960 
	C185.146896,162.045746 183.080215,162.761200 180.983185,163.285263 
	C175.514862,164.651840 175.149933,164.436981 175.172089,158.992294 
	C175.222229,146.671890 175.449677,134.351669 175.431458,122.031639 
	C175.408813,106.726692 175.247665,91.421593 175.069702,76.117447 
	C175.004578,70.518517 174.991501,70.479073 180.511490,71.660507 
	C186.400711,72.920982 191.703812,71.355522 196.630829,68.134911 
	C198.257172,67.071815 199.892227,66.022057 202.453537,64.364006 
	C205.835342,77.448235 209.030457,89.810135 212.225571,102.172043 
	C212.784073,102.220070 213.342575,102.268105 213.901062,102.316139 
	C214.552414,99.418289 215.311859,96.539734 215.833435,93.618713 
	C217.061371,86.741676 218.177597,79.844666 219.335205,72.955093 
	C219.822006,70.057999 220.594620,68.041603 224.468628,68.896446 
	C230.472031,70.221153 235.066772,66.932777 239.196152,63.129272 
	C242.901627,59.716236 246.401367,56.079842 251.005234,51.543434 
	C251.005234,77.427132 251.005234,101.955353 251.005234,126.979584 
z"/>
<path fill="#FFFDFB" opacity="1.000000" stroke="none" 
	d="
M59.778938,66.282936 
	C66.288574,84.582603 72.667618,102.522720 79.046661,120.462845 
	C79.638252,120.378372 80.229843,120.293900 80.821434,120.209419 
	C80.932114,118.540001 81.135498,116.870758 81.138824,115.201126 
	C81.165359,101.869850 81.300797,88.535957 81.069595,75.208649 
	C80.995064,70.912590 82.373650,70.134834 86.333466,70.977966 
	C98.145752,73.493088 98.171852,73.370682 98.171814,85.566582 
	C98.171738,111.559677 98.095795,137.553207 98.244789,163.545441 
	C98.270164,167.972092 97.374626,169.309570 92.569756,168.348099 
	C75.705788,164.973541 75.638954,165.176926 69.611107,149.181946 
	C64.447807,135.481049 59.365696,121.749573 54.228733,108.038734 
	C53.619648,106.413040 52.891094,104.832115 52.217918,103.230431 
	C51.722385,103.312180 51.226849,103.393929 50.731316,103.475670 
	C50.731316,119.899307 50.731316,136.322937 50.731316,152.746567 
	C50.237999,153.093658 49.744682,153.440750 49.251366,153.787842 
	C44.655476,151.064209 39.849720,148.621826 35.592224,145.444733 
	C34.323059,144.497635 34.211491,141.491272 34.212009,139.428589 
	C34.217793,116.436302 34.355804,93.444061 34.443657,70.451759 
	C34.468914,63.841618 34.447525,57.231297 34.447525,49.638634 
	C40.702541,52.930279 46.310001,55.933079 51.967552,58.838326 
	C55.204281,60.500446 58.877266,61.618019 59.778938,66.282936 
z"/>
<path fill="#FFFEFC" opacity="1.000000" stroke="none" 
	d="
M169.841797,116.005966 
	C169.839355,127.841408 169.816925,139.189178 165.941772,150.064957 
	C159.760696,167.412384 140.932175,176.354263 123.778008,170.169693 
	C114.692162,166.893982 108.839256,160.230637 107.098305,151.120209 
	C105.176750,141.064636 104.171982,130.714996 104.001236,120.472885 
	C103.771141,106.670692 104.801270,92.850662 105.108597,79.034241 
	C105.191948,75.286781 106.646164,74.036835 110.305756,74.421921 
	C114.270065,74.839081 118.282166,74.997955 122.269020,74.943954 
	C125.555855,74.899437 126.504593,76.053993 126.377983,79.401634 
	C125.811813,94.371841 125.404526,109.352036 125.265816,124.331642 
	C125.230995,128.092010 126.175629,131.919418 127.080864,135.615433 
	C128.140610,139.942352 131.146133,142.612015 135.643692,142.723358 
	C140.354965,142.840012 144.755981,140.841049 145.670746,136.096176 
	C147.168716,128.326111 148.123138,120.345688 148.233383,112.439018 
	C148.388672,101.301285 147.722061,90.140747 147.079010,79.008911 
	C146.828659,74.675026 148.372498,73.011177 152.595932,72.753654 
	C156.229691,72.532082 159.865707,71.804001 163.419617,70.958778 
	C167.553223,69.975685 168.787613,71.809952 168.849762,75.557091 
	C169.021011,85.880486 169.299026,96.202156 169.549210,106.524170 
	C169.621811,109.519760 169.742920,112.514160 169.841797,116.005966 
z"/>
<path fill="#FFFEFC" opacity="1.000000" stroke="none" 
	d="
M358.652893,118.815796 
	C357.307892,117.321861 355.710632,115.883224 355.625244,114.359833 
	C355.421692,110.729576 355.606323,107.004379 356.210876,103.414665 
	C358.805176,88.009583 355.840118,73.450806 350.556122,59.002316 
	C346.332367,47.453087 342.993073,35.581985 339.175476,23.881731 
	C337.946411,20.114882 338.337341,18.112114 343.055969,17.743813 
	C357.217010,16.638500 357.206757,16.475229 360.804230,30.033173 
	C362.809448,37.590195 364.788788,45.154148 366.822052,52.703606 
	C367.139099,53.880898 367.682068,54.997349 368.699036,57.651772 
	C370.117188,53.987621 371.159302,51.817158 371.805695,49.534630 
	C374.615479,39.612576 377.456238,29.694803 379.979919,19.698263 
	C381.108521,15.227620 383.237610,13.590037 387.760284,14.978583 
	C390.613068,15.854444 393.589417,16.358068 396.534790,16.894524 
	C399.955566,17.517569 400.966675,19.199123 399.715393,22.553782 
	C392.740662,41.252697 385.791687,59.961952 379.005463,78.729706 
	C377.899902,81.787148 377.284485,85.130516 377.075043,88.382477 
	C376.497437,97.351204 376.152618,106.338997 375.931183,115.324562 
	C375.844269,118.850792 374.642517,119.970985 371.047455,119.443649 
	C367.115662,118.866905 363.078918,119.005661 358.652893,118.815796 
z"/>
<path fill="#FFFEFC" opacity="1.000000" stroke="none" 
	d="
M446.816956,52.829735 
	C443.477173,64.127235 440.244690,75.036629 436.850403,86.492165 
	C431.471710,83.474625 426.771820,81.048370 422.344330,78.198799 
	C421.300842,77.527199 420.518036,75.325996 420.725891,74.002876 
	C424.000854,53.151531 427.455139,32.328323 430.888336,11.501974 
	C430.965240,11.035436 431.276398,10.607516 431.740875,9.581509 
	C433.207520,10.384983 434.706116,10.969420 435.924561,11.914863 
	C440.917603,15.789184 445.777405,19.835634 450.783508,23.692509 
	C453.487030,25.775370 454.349792,27.986195 453.191528,31.431782 
	C450.864258,38.355003 448.987122,45.429539 446.816956,52.829735 
z"/>
<path fill="#FFFDFB" opacity="1.000000" stroke="none" 
	d="
M415.827515,91.601562 
	C427.413391,89.264137 439.706726,105.106430 437.187347,116.184761 
	C436.132416,120.823631 432.699432,122.598648 428.367859,122.803856 
	C418.378571,123.277100 407.747711,112.848763 407.966827,102.877296 
	C408.082886,97.595505 410.166199,93.562172 415.827515,91.601562 
z"/>
<path fill="#FFFDF9" opacity="1.000000" stroke="none" 
	d="
M57.372299,50.350250 
	C55.013893,49.461128 52.995426,48.728725 50.952412,48.072769 
	C49.036121,47.457493 45.706581,47.303551 45.426109,46.280914 
	C44.621239,43.346260 44.884380,40.061020 45.139454,36.947304 
	C45.184555,36.396740 47.437527,35.359524 48.287247,35.654034 
	C52.775452,37.209633 57.378658,38.701012 61.478436,41.030491 
	C65.188400,43.138474 68.262177,46.347771 71.689262,48.976562 
	C75.998222,52.281807 80.675011,54.100750 86.052269,51.686516 
	C89.115631,50.311157 89.769440,51.748260 90.040718,54.486832 
	C91.028481,64.458061 87.617088,65.937798 77.733849,64.077805 
	C74.515709,63.472168 71.524689,61.069355 68.701729,59.098907 
	C64.897270,56.443367 61.355831,53.410999 57.372299,50.350250 
z"/>
<path fill="#FFFFFF" opacity="1.000000" stroke="none" 
	d="
M392.917938,83.931717 
	C395.335510,77.898628 397.753082,71.865547 400.170654,65.832458 
	C400.293243,72.703651 399.748047,79.329590 393.733521,84.273285 
	C393.168579,84.185051 393.043274,84.058388 392.917938,83.931717 
z"/>
<path fill="#FFFFFF" opacity="1.000000" stroke="none" 
	d="
M393.473602,84.509598 
	C393.186523,84.960495 392.719757,85.213501 392.252991,85.466507 
	C392.304382,85.034409 392.355774,84.602318 392.662537,84.050972 
	C393.043274,84.058388 393.168579,84.185051 393.473602,84.509598 
z"/>
</svg>